{
    "accessors" : [
        {
            "bufferView" : 0, 
            "componentType" : 5123, 
            "count" : 4152, 
            "max" : [
                1938
            ], 
            "min" : [
                0
            ], 
            "type" : "SCALAR"
        }, 
        {
            "bufferView" : 1, 
            "componentType" : 5126, 
            "count" : 1939, 
            "max" : [
                1.0149990320205688, 
                1.0000079870224, 
                1.0000005960464478
            ], 
            "min" : [
                -1.0149990320205688, 
                -28.000003814697266, 
                -1.0000005960464478
            ], 
            "type" : "VEC3"
        }, 
        {
            "bufferView" : 2, 
            "componentType" : 5126, 
            "count" : 1939, 
            "max" : [
                1.0, 
                1.0, 
                1.0
            ], 
            "min" : [
                -1.0, 
                -1.0, 
                -1.0
            ], 
            "type" : "VEC3"
        }, 
        {
            "bufferView" : 3, 
            "componentType" : 5123, 
            "count" : 624, 
            "max" : [
                292
            ], 
            "min" : [
                0
            ], 
            "type" : "SCALAR"
        }, 
        {
            "bufferView" : 4, 
            "componentType" : 5126, 
            "count" : 293, 
            "max" : [
                1.0149989128112793, 
                1.0000079870224, 
                1.0000005960464478
            ], 
            "min" : [
                -1.0149989128112793, 
                1.0, 
                -1.0000005960464478
            ], 
            "type" : "VEC3"
        }, 
        {
            "bufferView" : 5, 
            "componentType" : 5126, 
            "count" : 293, 
            "max" : [
                0.0005325024831108749, 
                1.0, 
                6.457283596716934e-10
            ], 
            "min" : [
                -0.0005325024831108749, 
                0.9999997615814209, 
                -6.457283596716934e-10
            ], 
            "type" : "VEC3"
        }
    ], 
    "asset" : {
        "generator" : "Khronos Blender glTF 2.0 exporter", 
        "version" : "2.0"
    }, 
    "bufferViews" : [
        {
            "buffer" : 0, 
            "byteLength" : 8304, 
            "byteOffset" : 0, 
            "target" : 34963
        }, 
        {
            "buffer" : 0, 
            "byteLength" : 23268, 
            "byteOffset" : 8304, 
            "target" : 34962
        }, 
        {
            "buffer" : 0, 
            "byteLength" : 23268, 
            "byteOffset" : 31572, 
            "target" : 34962
        }, 
        {
            "buffer" : 0, 
            "byteLength" : 1248, 
            "byteOffset" : 54840, 
            "target" : 34963
        }, 
        {
            "buffer" : 0, 
            "byteLength" : 3516, 
            "byteOffset" : 56088, 
            "target" : 34962
        }, 
        {
            "buffer" : 0, 
            "byteLength" : 3516, 
            "byteOffset" : 59604, 
            "target" : 34962
        }
    ], 
    "buffers" : [
        {
            "byteLength" : 63120, 
            "uri" : "table_tennis_table.bin"
        }
    ], 
    "materials" : [
        {
            "name" : "line", 
            "pbrMetallicRoughness" : {
                "metallicFactor" : 0.0
            }
        }, 
        {
            "name" : "SCREW", 
            "pbrMetallicRoughness" : {
                "baseColorFactor" : [
                    0.0, 
                    0.0, 
                    0.0, 
                    1.0
                ], 
                "metallicFactor" : 0.0
            }
        }, 
        {
            "name" : "table top", 
            "pbrMetallicRoughness" : {
                "baseColorFactor" : [
                    0.007539878133684397, 
                    0.012197384610772133, 
                    0.035217948257923126, 
                    1.0
                ], 
                "metallicFactor" : 0.0
            }
        }
    ], 
    "meshes" : [
        {
            "name" : "Cube", 
            "primitives" : [
                {
                    "attributes" : {
                        "NORMAL" : 2, 
                        "POSITION" : 1
                    }, 
                    "indices" : 0, 
                    "material" : 2
                }, 
                {
                    "attributes" : {
                        "NORMAL" : 5, 
                        "POSITION" : 4
                    }, 
                    "indices" : 3, 
                    "material" : 0
                }
            ]
        }
    ], 
    "nodes" : [
        {
            "mesh" : 0, 
            "name" : "Table", 
            "scale" : [
                1.5199999809265137, 
                0.022799978032708168, 
                2.740000009536743
            ], 
            "translation" : [
                0.0, 
                0.6443961262702942, 
                -0.0
            ]
        }
    ], 
    "scene" : 0, 
    "scenes" : [
        {
            "name" : "Scene", 
            "nodes" : [
                0
            ]
        }
    ]
}
