{
    "accessors" : [
        {
            "bufferView" : 0, 
            "componentType" : 5123, 
            "count" : 7680, 
            "max" : [
                1281
            ], 
            "min" : [
                0
            ], 
            "type" : "SCALAR"
        }, 
        {
            "bufferView" : 1, 
            "componentType" : 5126, 
            "count" : 1282, 
            "max" : [
                0.13992007076740265, 
                -0.0072439005598425865, 
                0.058499936014413834
            ], 
            "min" : [
                -0.13272909820079803, 
                -0.007982552982866764, 
                -0.21711553633213043
            ], 
            "type" : "VEC3"
        }, 
        {
            "bufferView" : 2, 
            "componentType" : 5126, 
            "count" : 1282, 
            "max" : [
                0.9915769100189209, 
                1.0, 
                0.9928281307220459
            ], 
            "min" : [
                -0.9916684627532959, 
                -1.0, 
                -0.9903561472892761
            ], 
            "type" : "VEC3"
        }, 
        {
            "bufferView" : 3, 
            "componentType" : 5126, 
            "count" : 1282, 
            "max" : [
                1.0, 
                0.0, 
                -0.0, 
                -1.0
            ], 
            "min" : [
                1.0, 
                0.0, 
                -0.0, 
                -1.0
            ], 
            "type" : "VEC4"
        }, 
        {
            "bufferView" : 4, 
            "componentType" : 5126, 
            "count" : 1282, 
            "max" : [
                0.0, 
                1.0
            ], 
            "min" : [
                0.0, 
                1.0
            ], 
            "type" : "VEC2"
        }, 
        {
            "bufferView" : 5, 
            "componentType" : 5123, 
            "count" : 130476, 
            "max" : [
                24012
            ], 
            "min" : [
                0
            ], 
            "type" : "SCALAR"
        }, 
        {
            "bufferView" : 6, 
            "componentType" : 5126, 
            "count" : 24013, 
            "max" : [
                0.13948260247707367, 
                0.01731695979833603, 
                0.24243797361850739
            ], 
            "min" : [
                -0.13381130993366241, 
                -0.01731695793569088, 
                -0.21741679310798645
            ], 
            "type" : "VEC3"
        }, 
        {
            "bufferView" : 7, 
            "componentType" : 5126, 
            "count" : 24013, 
            "max" : [
                1.0, 
                1.0, 
                0.999969482421875
            ], 
            "min" : [
                -1.0, 
                -1.0, 
                -0.99969482421875
            ], 
            "type" : "VEC3"
        }, 
        {
            "bufferView" : 8, 
            "componentType" : 5126, 
            "count" : 24013, 
            "max" : [
                1.0, 
                1.0, 
                0.9999978542327881, 
                1.0
            ], 
            "min" : [
                -0.9999998211860657, 
                -1.0, 
                -0.9999999403953552, 
                -1.0
            ], 
            "type" : "VEC4"
        }, 
        {
            "bufferView" : 9, 
            "componentType" : 5126, 
            "count" : 24013, 
            "max" : [
                1.0, 
                1.0
            ], 
            "min" : [
                0.0, 
                0.0
            ], 
            "type" : "VEC2"
        }, 
        {
            "bufferView" : 10, 
            "componentType" : 5123, 
            "count" : 7680, 
            "max" : [
                1985
            ], 
            "min" : [
                0
            ], 
            "type" : "SCALAR"
        }, 
        {
            "bufferView" : 11, 
            "componentType" : 5126, 
            "count" : 1986, 
            "max" : [
                0.140085369348526, 
                0.007988217286765575, 
                0.05860991030931473
            ], 
            "min" : [
                -0.1327657401561737, 
                0.007249552756547928, 
                -0.21720969676971436
            ], 
            "type" : "VEC3"
        }, 
        {
            "bufferView" : 12, 
            "componentType" : 5126, 
            "count" : 1986, 
            "max" : [
                0.9745780825614929, 
                1.0, 
                0.9776909947395325
            ], 
            "min" : [
                -0.9747306704521179, 
                -0.999969482421875, 
                -0.9715262055397034
            ], 
            "type" : "VEC3"
        }, 
        {
            "bufferView" : 13, 
            "componentType" : 5126, 
            "count" : 1986, 
            "max" : [
                1.0, 
                0.5982366800308228, 
                0.9999994039535522, 
                1.0
            ], 
            "min" : [
                -1.0, 
                -0.0009102071635425091, 
                -1.0, 
                -1.0
            ], 
            "type" : "VEC4"
        }, 
        {
            "bufferView" : 14, 
            "componentType" : 5126, 
            "count" : 1986, 
            "max" : [
                0.8560291528701782, 
                0.8086013793945312
            ], 
            "min" : [
                0.13409221172332764, 
                0.079947829246521
            ], 
            "type" : "VEC2"
        }
    ], 
    "asset" : {
        "generator" : "Khronos Blender glTF 2.0 exporter", 
        "version" : "2.0"
    }, 
    "bufferViews" : [
        {
            "buffer" : 0, 
            "byteLength" : 15360, 
            "byteOffset" : 0, 
            "target" : 34963
        }, 
        {
            "buffer" : 0, 
            "byteLength" : 15384, 
            "byteOffset" : 15360, 
            "target" : 34962
        }, 
        {
            "buffer" : 0, 
            "byteLength" : 15384, 
            "byteOffset" : 30744, 
            "target" : 34962
        }, 
        {
            "buffer" : 0, 
            "byteLength" : 20512, 
            "byteOffset" : 46128, 
            "target" : 34962
        }, 
        {
            "buffer" : 0, 
            "byteLength" : 10256, 
            "byteOffset" : 66640, 
            "target" : 34962
        }, 
        {
            "buffer" : 0, 
            "byteLength" : 260952, 
            "byteOffset" : 76896, 
            "target" : 34963
        }, 
        {
            "buffer" : 0, 
            "byteLength" : 288156, 
            "byteOffset" : 337848, 
            "target" : 34962
        }, 
        {
            "buffer" : 0, 
            "byteLength" : 288156, 
            "byteOffset" : 626004, 
            "target" : 34962
        }, 
        {
            "buffer" : 0, 
            "byteLength" : 384208, 
            "byteOffset" : 914160, 
            "target" : 34962
        }, 
        {
            "buffer" : 0, 
            "byteLength" : 192104, 
            "byteOffset" : 1298368, 
            "target" : 34962
        }, 
        {
            "buffer" : 0, 
            "byteLength" : 15360, 
            "byteOffset" : 1490472, 
            "target" : 34963
        }, 
        {
            "buffer" : 0, 
            "byteLength" : 23832, 
            "byteOffset" : 1505832, 
            "target" : 34962
        }, 
        {
            "buffer" : 0, 
            "byteLength" : 23832, 
            "byteOffset" : 1529664, 
            "target" : 34962
        }, 
        {
            "buffer" : 0, 
            "byteLength" : 31776, 
            "byteOffset" : 1553496, 
            "target" : 34962
        }, 
        {
            "buffer" : 0, 
            "byteLength" : 15888, 
            "byteOffset" : 1585272, 
            "target" : 34962
        }
    ], 
    "buffers" : [
        {
            "byteLength" : 1601160, 
            "uri" : "table_tennis_racket.bin"
        }
    ], 
    "materials" : [
        {
            "name" : "lower rubber", 
            "pbrMetallicRoughness" : {
                "baseColorFactor" : [
                    0.043584228211406284, 
                    0.04490279622231119, 
                    0.04760899912728367, 
                    1.0
                ], 
                "metallicFactor" : 0.0
            }
        }, 
        {
            "name" : "upper rubber", 
            "pbrMetallicRoughness" : {
                "baseColorFactor" : [
                    0.46726279955003847, 
                    0.01550588928916885, 
                    0.016230848673445708, 
                    1.0
                ], 
                "metallicFactor" : 0.0
            }
        }, 
        {
            "name" : "wood", 
            "pbrMetallicRoughness" : {
                "baseColorFactor" : [
                    0.2116628676693928, 
                    0.12712002509178433, 
                    0.07190789959684807, 
                    1.0
                ], 
                "metallicFactor" : 0.0
            }
        }
    ], 
    "meshes" : [
        {
            "name" : "Circle.003", 
            "primitives" : [
                {
                    "attributes" : {
                        "NORMAL" : 2, 
                        "POSITION" : 1, 
                        "TANGENT" : 3, 
                        "TEXCOORD_0" : 4
                    }, 
                    "indices" : 0, 
                    "material" : 0
                }, 
                {
                    "attributes" : {
                        "NORMAL" : 7, 
                        "POSITION" : 6, 
                        "TANGENT" : 8, 
                        "TEXCOORD_0" : 9
                    }, 
                    "indices" : 5, 
                    "material" : 2
                }, 
                {
                    "attributes" : {
                        "NORMAL" : 12, 
                        "POSITION" : 11, 
                        "TANGENT" : 13, 
                        "TEXCOORD_0" : 14
                    }, 
                    "indices" : 10, 
                    "material" : 1
                }
            ]
        }
    ], 
    "nodes" : [
        {
            "mesh" : 0, 
            "name" : "raquet.001"
        }
    ], 
    "scene" : 0, 
    "scenes" : [
        {
            "name" : "Scene", 
            "nodes" : [
                0
            ]
        }
    ]
}
